<svg width="18.000000" height="18.000000" viewBox="0 0 18 18" fill="none" xmlns="http://www.w3.org/2000/svg" xmlns:xlink="http://www.w3.org/1999/xlink">
	<desc>
			Created with Pixso.
	</desc>
	<defs>
		<clipPath id="clip985_12361">
			<rect id="965184-200 2" rx="0.000000" width="17.844999" height="17.844999" transform="translate(0.077500 0.077500)" fill="white" fill-opacity="0"/>
		</clipPath>
	</defs>
	<rect id="965184-200 2" rx="0.000000" width="17.844999" height="17.844999" transform="translate(0.077500 0.077500)" fill="#FFFFFF" fill-opacity="0"/>
	<g clip-path="url(#clip985_12361)">
		<path id="Vector" d="M6.06 0.24C5.98 0.38 5.73 0.88 5.5 1.34L5.08 2.19L4.2 2.43C3.38 2.67 3.29 2.71 2.91 3.14C2.48 3.62 2.52 3.6 0.99 3.83L-0.03 3.98L0.02 4.59C0.08 5.26 0.34 5.93 0.65 6.28C1.07 6.72 1.5 6.85 2.79 6.94C3.45 6.99 4.03 7.05 4.05 7.09C4.08 7.12 4.44 8.14 4.85 9.35L5.59 11.56L4.66 13.67C4.14 14.83 3.66 15.81 3.59 15.84C3.51 15.88 3.29 15.95 3.08 16.01C2.6 16.14 2.17 16.5 1.97 16.96C1.75 17.43 1.75 17.59 1.98 17.81C2.15 17.99 2.27 18 4.44 18L6.72 18L6.68 17.78C6.65 17.62 6.7 17.53 6.89 17.4C7.02 17.3 7.29 17.09 7.48 16.91C7.92 16.49 7.92 16.23 7.54 15.48C7.26 14.94 7.24 14.85 7.25 14.04C7.25 13.57 7.29 12.86 7.33 12.46C7.42 11.54 7.29 11.25 6.66 10.94C6.1 10.65 5.76 10.24 5.76 9.85C5.76 9.59 5.79 9.54 6.03 9.49C6.19 9.45 6.43 9.27 6.66 9C6.91 8.7 7.14 8.52 7.4 8.43L7.78 8.3L7.83 7.71L7.87 7.1L8.65 7.79C9.54 8.55 9.83 9.05 10.12 10.21C10.42 11.43 10.8 11.88 12.15 12.56C13.59 13.29 14.38 14.25 14.55 15.49C14.61 15.91 14.83 15.95 15.16 15.61C15.48 15.29 15.45 14.83 15.01 13.55C14.67 12.58 14.62 12.36 14.6 11.53L14.58 10.61L13.64 9.59C12.53 8.38 12.14 8.01 10.89 7.02C9.78 6.12 9.06 5.41 8.77 4.91C8.65 4.7 8.31 3.96 8.01 3.25C7.21 1.39 6.5 0 6.33 0C6.26 0 6.13 0.1 6.06 0.24Z" fill="#3E3E3E" fill-opacity="1.000000" fill-rule="nonzero"/>
		<path id="Vector" d="M15.96 7.6C15.93 7.67 15.95 7.93 16.01 8.19C16.06 8.44 16.11 8.93 16.11 9.29C16.11 9.91 16.11 9.95 16.38 10.09C16.58 10.21 16.65 10.31 16.65 10.52C16.65 10.87 16.39 11.01 15.93 10.93C15.62 10.88 15.58 10.89 15.53 11.11C15.45 11.42 15.62 12.31 15.9 13.09C16.42 14.56 16.49 15.17 16.2 15.79C15.98 16.28 15.66 16.55 15.12 16.74C14.78 16.84 14.59 16.98 14.4 17.26C14.22 17.51 14 17.67 13.66 17.81L13.18 18L14.28 17.97C15.25 17.93 15.43 17.91 15.88 17.69C16.48 17.38 16.95 16.82 17.15 16.12C17.35 15.46 17.28 14.48 17.01 13.92C16.8 13.47 16.8 13.48 17.23 12.9C17.76 12.21 17.94 11.65 17.94 10.75C17.94 10.12 17.9 9.83 17.73 9.45C17.49 8.85 16.8 7.79 16.53 7.6C16.29 7.43 16.02 7.43 15.96 7.6Z" fill="#3E3E3E" fill-opacity="1.000000" fill-rule="nonzero"/>
		<path id="Vector" d="M9.93 14.25C9.42 14.48 9.2 14.89 8.87 16.28C8.7 16.98 8.49 17.65 8.42 17.77L8.28 18L8.7 18C9.07 18 9.1 17.98 8.96 17.88C8.82 17.78 8.81 17.73 8.9 17.55C9.03 17.3 9.35 17.18 9.87 17.18L10.28 17.18L9.91 16.92C9.41 16.56 9.23 16.19 9.3 15.67C9.42 14.82 10.01 14.32 10.93 14.3C11.29 14.29 11.34 14.27 11.15 14.22C10.8 14.1 10.24 14.12 9.93 14.25Z" fill="#3E3E3E" fill-opacity="1.000000" fill-rule="nonzero"/>
	</g>
</svg>
