<svg width="16.000000" height="16.000000" viewBox="0 0 16 16" fill="none" xmlns="http://www.w3.org/2000/svg" xmlns:xlink="http://www.w3.org/1999/xlink">
	<desc>
			Created with Pixso.
	</desc>
	<defs>
		<clipPath id="clip6_4478">
			<rect id="mobile_major" rx="0.000000" width="15.000000" height="15.000000" transform="translate(0.500000 0.500000)" fill="white" fill-opacity="0"/>
		</clipPath>
	</defs>
	<rect id="mobile_major" rx="0.000000" width="15.000000" height="15.000000" transform="translate(0.500000 0.500000)" fill="#FFFFFF" fill-opacity="0"/>
	<g clip-path="url(#clip6_4478)">
		<path id="Primary fill" d="M2.4 1.19C2.4 0.53 2.93 0 3.6 0L12.4 0C13.06 0 13.6 0.53 13.6 1.19L13.6 14.8C13.6 15.46 13.06 16 12.4 16L3.6 16C2.93 16 2.4 15.46 2.4 14.8L2.4 1.19ZM4 1.6L12 1.6L12 12.8L4 12.8L4 1.6ZM7.2 13.6C6.75 13.6 6.4 13.95 6.4 14.39C6.4 14.84 6.75 15.2 7.2 15.2L8.8 15.2C9.24 15.2 9.6 14.84 9.6 14.39C9.6 13.95 9.24 13.6 8.8 13.6L7.2 13.6Z" fill="#8C9196" fill-opacity="1.000000" fill-rule="evenodd"/>
	</g>
</svg>
