<svg viewBox="0 0 20 20" xmlns="http://www.w3.org/2000/svg" xmlns:xlink="http://www.w3.org/1999/xlink" width="20.000000" height="20.000000" fill="none" customFrame="#000000">
	<rect id="plus_minor" width="20.000000" height="20.000000" x="0.000000" y="0.000000" />
	<path id="Primary fill" d="M17 9L11 9L11 3C11 2.448 10.553 2 10 2C9.447 2 9 2.448 9 3L9 9L3 9C2.447 9 2 9.448 2 10C2 10.552 2.447 11 3 11L9 11L9 17C9 17.552 9.447 18 10 18C10.553 18 11 17.552 11 17L11 11L17 11C17.553 11 18 10.552 18 10C18 9.448 17.553 9 17 9Z" fill="rgb(0,127.5,95.625)" fill-rule="evenodd" />
</svg>
