<svg width="12.800049" height="16.000000" viewBox="0 0 12.8 16" fill="none" xmlns="http://www.w3.org/2000/svg" xmlns:xlink="http://www.w3.org/1999/xlink">
	<desc>
			Created with Pixso.
	</desc>
	<defs/>
	<path id="Primary fill" d="M12.8 6.39C12.8 2.86 9.93 0 6.39 0C2.86 0 0 2.86 0 6.39C0 6.52 0 6.63 0 6.75C0.11 9.59 1.6 12.84 5.71 15.78C6.12 16.07 6.67 16.07 7.08 15.78C11.2 12.84 12.68 9.59 12.79 6.75C12.8 6.63 12.8 6.52 12.8 6.39ZM8.09 8.09C8.54 7.64 8.8 7.03 8.8 6.39C8.8 5.76 8.54 5.15 8.09 4.7C7.64 4.25 7.03 4 6.39 4C5.76 4 5.15 4.25 4.7 4.7C4.25 5.15 4 5.76 4 6.39C4 7.03 4.25 7.64 4.7 8.09C5.15 8.54 5.76 8.8 6.39 8.8C7.03 8.8 7.64 8.54 8.09 8.09Z" fill="#8C9196" fill-opacity="1.000000" fill-rule="evenodd"/>
</svg>
