<svg width="13.373535" height="13.374268" viewBox="0 0 13.3735 13.3743" fill="none" xmlns="http://www.w3.org/2000/svg" xmlns:xlink="http://www.w3.org/1999/xlink">
	<desc>
			Created with Pixso.
	</desc>
	<defs/>
	<path id="Vector" d="M4.45 6.68C4.45 5.45 5.45 4.45 6.68 4.45C7.91 4.45 8.91 5.45 8.91 6.68C8.91 7.91 7.91 8.91 6.68 8.91C5.45 8.91 4.45 7.91 4.45 6.68ZM3.25 6.68C3.25 8.58 4.79 10.12 6.68 10.12C8.58 10.12 10.12 8.58 10.12 6.68C10.12 4.79 8.58 3.25 6.68 3.25C4.79 3.25 3.25 4.79 3.25 6.68L3.25 6.68ZM9.45 3.11C9.45 3.27 9.5 3.43 9.58 3.56C9.67 3.69 9.8 3.79 9.94 3.85C10.09 3.91 10.25 3.93 10.41 3.9C10.56 3.87 10.71 3.79 10.82 3.68C10.93 3.57 11.01 3.42 11.04 3.27C11.07 3.11 11.05 2.95 10.99 2.81C10.93 2.66 10.83 2.53 10.7 2.45C10.57 2.36 10.41 2.31 10.25 2.31L10.25 2.31C10.04 2.31 9.83 2.39 9.68 2.55C9.53 2.7 9.45 2.9 9.45 3.11ZM3.98 12.13C3.33 12.1 2.97 11.99 2.74 11.9C2.43 11.77 2.2 11.63 1.97 11.39C1.74 11.16 1.59 10.94 1.47 10.63C1.38 10.39 1.27 10.04 1.24 9.38C1.21 8.68 1.2 8.47 1.2 6.68C1.2 4.9 1.21 4.69 1.24 3.98C1.27 3.33 1.38 2.97 1.47 2.74C1.59 2.43 1.74 2.2 1.97 1.97C2.2 1.73 2.43 1.59 2.74 1.47C2.97 1.38 3.33 1.27 3.98 1.24C4.69 1.21 4.9 1.2 6.68 1.2C8.47 1.2 8.68 1.21 9.38 1.24C10.04 1.27 10.39 1.38 10.63 1.47C10.94 1.59 11.16 1.73 11.4 1.97C11.63 2.2 11.77 2.43 11.9 2.74C11.99 2.97 12.1 3.33 12.13 3.98C12.16 4.69 12.16 4.9 12.16 6.68C12.16 8.47 12.16 8.68 12.13 9.38C12.1 10.04 11.99 10.39 11.9 10.63C11.77 10.94 11.63 11.16 11.4 11.4C11.16 11.63 10.94 11.77 10.63 11.9C10.39 11.99 10.04 12.1 9.38 12.13C8.68 12.16 8.47 12.16 6.68 12.16C4.9 12.16 4.68 12.16 3.98 12.13L3.98 12.13ZM3.93 0.04C3.21 0.07 2.73 0.18 2.3 0.35C1.86 0.52 1.49 0.75 1.12 1.12C0.75 1.49 0.52 1.86 0.35 2.3C0.18 2.73 0.07 3.21 0.04 3.93C0 4.64 0 4.87 0 6.68C0 8.5 0 8.73 0.04 9.44C0.07 10.15 0.18 10.64 0.35 11.06C0.52 11.5 0.75 11.88 1.12 12.25C1.49 12.62 1.86 12.85 2.3 13.02C2.73 13.18 3.21 13.3 3.93 13.33C4.64 13.36 4.87 13.37 6.68 13.37C8.5 13.37 8.73 13.36 9.44 13.33C10.15 13.3 10.64 13.18 11.06 13.02C11.5 12.85 11.87 12.62 12.25 12.25C12.62 11.88 12.85 11.5 13.02 11.06C13.18 10.64 13.3 10.15 13.33 9.44C13.36 8.73 13.37 8.5 13.37 6.68C13.37 4.87 13.36 4.64 13.33 3.93C13.3 3.21 13.18 2.73 13.02 2.3C12.85 1.86 12.62 1.49 12.25 1.12C11.88 0.75 11.5 0.52 11.06 0.35C10.64 0.18 10.15 0.07 9.44 0.04C8.73 0 8.5 0 6.68 0C4.87 0 4.64 0 3.93 0.04Z" fill="#FFFFFF" fill-opacity="1.000000" fill-rule="nonzero"/>
</svg>
