<svg width="151.546875" height="11.851562" viewBox="0 0 151.547 11.8516" fill="none" xmlns="http://www.w3.org/2000/svg" xmlns:xlink="http://www.w3.org/1999/xlink">
	<desc>
			Created with Pixso.
	</desc>
	<defs/>
	<path id="Территория ZOO" d="M76.71 5.92C76.71 9.57 74.62 11.85 71.29 11.85C67.94 11.85 65.86 9.57 65.86 5.92L65.86 5.91C65.86 2.26 67.97 0 71.29 0C74.61 0 76.71 2.27 76.71 5.91L76.71 5.92ZM5.74 11.56L3.38 11.56L3.38 2.23L0 2.23L0 0.28L9.12 0.28L9.12 2.23L5.74 2.23L5.74 11.56ZM18.83 11.56L11.36 11.56L11.36 0.28L18.83 0.28L18.83 2.23L13.72 2.23L13.72 4.95L18.54 4.95L18.54 6.76L13.72 6.76L13.72 9.61L18.83 9.61L18.83 11.56ZM23.83 11.56L21.47 11.56L21.47 0.28L26.12 0.28C28.5 0.28 30.08 1.82 30.08 4.14L30.08 4.15C30.08 6.47 28.5 8 26.12 8L23.83 8L23.83 11.56ZM34.77 11.56L32.41 11.56L32.41 0.28L37.06 0.28C39.43 0.28 41.02 1.82 41.02 4.14L41.02 4.15C41.02 6.47 39.43 8 37.06 8L34.77 8L34.77 11.56ZM45.61 11.56L43.35 11.56L43.35 0.28L45.7 0.28L45.7 7.82L45.85 7.82L50.92 0.28L53.18 0.28L53.18 11.56L50.83 11.56L50.83 4.03L50.68 4.03L45.61 11.56ZM61.17 11.56L58.82 11.56L58.82 2.23L55.43 2.23L55.43 0.28L64.56 0.28L64.56 2.23L61.17 2.23L61.17 11.56ZM81.47 11.56L79.11 11.56L79.11 0.28L83.76 0.28C86.14 0.28 87.72 1.82 87.72 4.14L87.72 4.15C87.72 6.47 86.14 8 83.76 8L81.47 8L81.47 11.56ZM92.32 11.56L90.05 11.56L90.05 0.28L92.4 0.28L92.4 7.82L92.56 7.82L97.63 0.28L99.89 0.28L99.89 11.56L97.53 11.56L97.53 4.03L97.39 4.03L92.32 11.56ZM111.23 0.28L111.23 11.56L108.89 11.56L108.89 7.49L107.32 7.49L104.64 11.56L102.03 11.56L104.99 7.16C103.54 6.71 102.56 5.51 102.56 3.93L102.56 3.92C102.56 1.75 104.14 0.28 106.65 0.28L111.23 0.28ZM68.27 5.92C68.27 8.31 69.43 9.85 71.29 9.85C73.13 9.85 74.31 8.31 74.31 5.92L74.31 5.91C74.31 3.52 73.12 2 71.29 2C69.46 2 68.27 3.52 68.27 5.91L68.27 5.92ZM106.99 5.73L108.89 5.73L108.89 2.14L106.98 2.14C105.73 2.14 104.96 2.82 104.96 3.92L104.96 3.94C104.96 5.07 105.71 5.73 106.99 5.73ZM27.69 4.14C27.69 2.86 26.89 2.15 25.54 2.15L23.83 2.15L23.83 6.16L25.54 6.16C26.89 6.16 27.69 5.44 27.69 4.16L27.69 4.14ZM38.63 4.14C38.63 2.86 37.83 2.15 36.48 2.15L34.77 2.15L34.77 6.16L36.48 6.16C37.83 6.16 38.63 5.44 38.63 4.16L38.63 4.14ZM85.33 4.14C85.33 2.86 84.53 2.15 83.18 2.15L81.47 2.15L81.47 6.16L83.18 6.16C84.53 6.16 85.33 5.44 85.33 4.16L85.33 4.14Z" fill="#202223" fill-opacity="1.000000" fill-rule="evenodd"/>
	<path id="Территория ZOO" d="M138.95 5.92C138.95 9.57 136.85 11.85 133.53 11.85C130.17 11.85 128.1 9.57 128.1 5.92L128.1 5.91C128.1 2.26 130.21 0 133.53 0C136.85 0 138.95 2.27 138.95 5.91L138.95 5.92ZM151.54 5.92C151.54 9.57 149.45 11.85 146.12 11.85C142.77 11.85 140.69 9.57 140.69 5.92L140.69 5.91C140.69 2.26 142.8 0 146.12 0C149.44 0 151.54 2.27 151.54 5.91L151.54 5.92ZM126.57 11.56L117.86 11.56L117.86 10.02L123.53 2.37L123.53 2.23L118 2.23L118 0.28L126.41 0.28L126.41 1.82L120.75 9.47L120.75 9.61L126.57 9.61L126.57 11.56ZM130.5 5.92C130.5 8.31 131.67 9.85 133.53 9.85C135.36 9.85 136.54 8.31 136.54 5.92L136.54 5.91C136.54 3.52 135.35 2 133.53 2C131.69 2 130.5 3.52 130.5 5.91L130.5 5.92ZM143.1 5.92C143.1 8.31 144.26 9.85 146.12 9.85C147.96 9.85 149.14 8.31 149.14 5.92L149.14 5.91C149.14 3.52 147.95 2 146.12 2C144.28 2 143.1 3.52 143.1 5.91L143.1 5.92Z" fill="#008060" fill-opacity="1.000000" fill-rule="evenodd"/>
</svg>
