<svg viewBox="0 0 16 16" xmlns="http://www.w3.org/2000/svg" xmlns:xlink="http://www.w3.org/1999/xlink" width="16.000000" height="16.000000" fill="none" customFrame="#000000">
	<rect id="calendar_minor" width="16.000000" height="16.000000" x="0.000000" y="0.000000" />
	<path id="Primary fill" d="M13.2001 3.2001C13.8628 3.2001 14.4001 3.73736 14.4001 4.4001L14.4001 13.2001C14.4001 13.8628 13.8628 14.4001 13.2001 14.4001L2.8001 14.4001C2.13736 14.4001 1.6001 13.8628 1.6001 13.2001L1.6001 4.4001C1.6001 3.73736 2.13736 3.2001 2.8001 3.2001L4.0001 3.2001L4.0001 2.4001C4.0001 1.9585 4.3577 1.6001 4.8001 1.6001C5.2425 1.6001 5.6001 1.9585 5.6001 2.4001L5.6001 3.2001L10.4001 3.2001L10.4001 2.4001C10.4001 1.9585 10.7577 1.6001 11.2001 1.6001C11.6425 1.6001 12.0001 1.9585 12.0001 2.4001L12.0001 3.2001L13.2001 3.2001ZM12.8001 6.4001L3.2001 6.4001L3.2001 12.8001L12.8001 12.8001L12.8001 6.4001Z" fill="rgb(0,160,172)" fill-rule="evenodd" />
</svg>
