<svg viewBox="0 0 16 16" xmlns="http://www.w3.org/2000/svg" xmlns:xlink="http://www.w3.org/1999/xlink" width="16.000000" height="16.000000" fill="none" customFrame="#000000">
	<rect id="clock_minor" width="16.000000" height="16.000000" x="0.000000" y="0.000000" />
	<path id="Primary fill" d="M8.0001 14.4001C4.4713 14.4001 1.6001 11.5289 1.6001 8.0001C1.6001 4.4713 4.4713 1.6001 8.0001 1.6001C11.5289 1.6001 14.4001 4.4713 14.4001 8.0001C14.4001 11.5289 11.5289 14.4001 8.0001 14.4001ZM9.8345 10.6345C9.6297 10.6345 9.4249 10.5561 9.2689 10.4001L7.4345 8.5657C7.2841 8.4161 7.2001 8.2121 7.2001 8.0001L7.2001 4.8001C7.2001 4.3585 7.5577 4.0001 8.0001 4.0001C8.4425 4.0001 8.8001 4.3585 8.8001 4.8001L8.8001 7.6689L10.4001 9.2689C10.7129 9.5817 10.7129 10.0873 10.4001 10.4001C10.2441 10.5561 10.0393 10.6345 9.8345 10.6345Z" fill="rgb(0,160,172)" fill-rule="evenodd" />
</svg>
