<svg viewBox="0 0 20 20" xmlns="http://www.w3.org/2000/svg" xmlns:xlink="http://www.w3.org/1999/xlink" width="20.000000" height="20.000000" fill="none">
	<rect id="filter_major" width="20.000000" height="20.000000" x="0.000000" y="0.000000" fill="rgb(255,255,255)" fill-opacity="0" />
	<path id="Primary fill" d="M0 5C0 4.44772 0.447715 4 1 4L19 4C19.5523 4 20 4.44772 20 5C20 5.55228 19.5523 6 19 6L1 6C0.447716 6 0 5.55228 0 5ZM3 10C3 9.44772 3.44772 9 4 9L16 9C16.5523 9 17 9.44772 17 10C17 10.5523 16.5523 11 16 11L4 11C3.44772 11 3 10.5523 3 10ZM7 15C7 14.4477 7.44772 14 8 14L12 14C12.5523 14 13 14.4477 13 15C13 15.5523 12.5523 16 12 16L8 16C7.44772 16 7 15.5523 7 15Z" fill="rgb(92,95,98)" fill-rule="evenodd" />
</svg>
