<svg width="24.000000" height="24.000000" viewBox="0 0 24 24" fill="none" xmlns="http://www.w3.org/2000/svg" xmlns:xlink="http://www.w3.org/1999/xlink">
	<desc>
			Created with Pixso.
	</desc>
	<defs>
		<clipPath id="clip17_4493">
			<rect id="965184-200 2" rx="0.000000" width="23.844999" height="23.844999" transform="translate(0.077500 0.077500)" fill="white" fill-opacity="0"/>
		</clipPath>
	</defs>
	<rect id="965184-200 2" rx="0.000000" width="23.844999" height="23.844999" transform="translate(0.077500 0.077500)" fill="#FFFFFF" fill-opacity="0"/>
	<g clip-path="url(#clip17_4493)">
		<path id="Vector" d="M8.08 0.32C7.98 0.51 7.64 1.17 7.34 1.8L6.78 2.92L5.6 3.25C4.51 3.56 4.39 3.62 3.88 4.18C3.31 4.83 3.36 4.81 1.33 5.11L-0.04 5.31L0.03 6.13C0.1 7.02 0.45 7.91 0.87 8.37C1.42 8.96 2 9.14 3.72 9.26C4.6 9.32 5.37 9.4 5.41 9.45C5.44 9.5 5.92 10.86 6.46 12.48L7.46 15.41L6.21 18.22C5.53 19.77 4.88 21.08 4.78 21.13C4.69 21.17 4.39 21.27 4.11 21.34C3.46 21.52 2.9 22 2.62 22.62C2.34 23.24 2.34 23.46 2.64 23.76C2.86 23.98 3.03 24 5.92 24L8.96 24L8.91 23.71C8.86 23.49 8.94 23.37 9.19 23.2C9.37 23.07 9.73 22.78 9.98 22.54C10.56 21.99 10.57 21.64 10.05 20.63C9.68 19.93 9.66 19.79 9.67 18.73C9.67 18.09 9.72 17.14 9.78 16.62C9.9 15.39 9.73 15.01 8.89 14.59C8.13 14.2 7.68 13.65 7.68 13.13C7.68 12.79 7.72 12.73 8.04 12.65C8.25 12.61 8.58 12.36 8.88 12C9.21 11.6 9.52 11.36 9.87 11.24L10.38 11.07L10.44 10.28L10.5 9.47L11.54 10.39C12.72 11.39 13.11 12.07 13.5 13.62C13.89 15.24 14.41 15.84 16.2 16.75C18.12 17.72 19.17 19 19.4 20.66C19.48 21.21 19.77 21.27 20.22 20.82C20.65 20.38 20.6 19.77 20.01 18.07C19.56 16.77 19.5 16.48 19.47 15.38L19.45 14.14L18.19 12.79C16.71 11.18 16.18 10.69 14.53 9.36C13.04 8.17 12.08 7.22 11.7 6.55C11.54 6.27 11.08 5.29 10.69 4.34C9.62 1.86 8.67 0 8.44 0C8.35 0 8.18 0.14 8.08 0.32Z" fill="#FFFFFF" fill-opacity="1.000000" fill-rule="nonzero"/>
		<path id="Vector" d="M21.28 10.14C21.25 10.23 21.27 10.58 21.34 10.92C21.42 11.25 21.48 11.91 21.48 12.39C21.48 13.22 21.49 13.27 21.84 13.46C22.11 13.62 22.2 13.75 22.2 14.02C22.2 14.49 21.86 14.68 21.25 14.58C20.83 14.5 20.78 14.53 20.71 14.82C20.6 15.22 20.83 16.41 21.2 17.46C21.9 19.41 21.99 20.23 21.61 21.06C21.31 21.7 20.89 22.06 20.16 22.32C19.71 22.46 19.46 22.64 19.21 23.01C18.95 23.35 18.67 23.56 18.21 23.74L17.58 24.01L19.04 23.96C20.34 23.91 20.58 23.88 21.18 23.59C21.98 23.18 22.6 22.42 22.87 21.5C23.13 20.61 23.05 19.3 22.69 18.56C22.4 17.96 22.4 17.97 22.98 17.2C23.68 16.28 23.92 15.54 23.92 14.34C23.92 13.5 23.86 13.11 23.65 12.6C23.32 11.8 22.4 10.39 22.04 10.14C21.72 9.91 21.37 9.91 21.28 10.14Z" fill="#FFFFFF" fill-opacity="1.000000" fill-rule="nonzero"/>
		<path id="Vector" d="M13.24 19C12.56 19.3 12.27 19.86 11.83 21.7C11.6 22.64 11.32 23.54 11.23 23.7L11.04 24L11.6 24C12.09 24 12.14 23.97 11.95 23.84C11.76 23.71 11.74 23.63 11.86 23.41C12.04 23.07 12.46 22.91 13.16 22.91L13.71 22.91L13.22 22.56C12.55 22.08 12.31 21.58 12.4 20.9C12.56 19.76 13.35 19.1 14.58 19.06C15.06 19.05 15.12 19.03 14.88 18.95C14.41 18.8 13.65 18.82 13.24 19Z" fill="#FFFFFF" fill-opacity="1.000000" fill-rule="nonzero"/>
	</g>
</svg>
